<svg xmlns="http://www.w3.org/2000/svg" xmlns:svg="http://www.w3.org/2000/svg" id="svg2" width="32" height="32" version="1.1" viewBox="0 0 32 32"><defs id="defs4"><filter style="color-interpolation-filters:sRGB" id="filter4429"><feFlood id="feFlood4431" flood-color="#000" flood-opacity=".502" result="flood"/><feComposite id="feComposite4433" in="flood" in2="SourceGraphic" operator="in" result="composite1"/><feGaussianBlur id="feGaussianBlur4435" in="composite1" result="blur" stdDeviation="0"/><feOffset id="feOffset4437" dx="0" dy="-2" result="offset"/><feComposite id="feComposite4439" in="SourceGraphic" in2="offset" operator="over" result="composite2"/></filter><filter style="color-interpolation-filters:sRGB" id="filter4238"><feFlood id="feFlood4240" flood-color="#000" flood-opacity=".502" result="flood"/><feComposite id="feComposite4242" in="flood" in2="SourceGraphic" operator="in" result="composite1"/><feGaussianBlur id="feGaussianBlur4244" in="composite1" result="blur" stdDeviation="0"/><feOffset id="feOffset4246" dx="0" dy="-2" result="offset"/><feComposite id="feComposite4248" in="SourceGraphic" in2="offset" operator="over" result="composite2"/></filter></defs><metadata id="metadata7"/><g id="layer4" style="display:inline"><path style="opacity:1;fill:#373737;fill-opacity:1;stroke:none;stroke-width:4;stroke-linecap:butt;stroke-linejoin:bevel;stroke-miterlimit:4;stroke-dasharray:none;stroke-dashoffset:1;stroke-opacity:1" id="rect4883" d="M 0,0 0,4 0,8 4,8 4,4 8,4 8,0 Z m 0,12 0,8 4,0 0,-8 z m 0,12 0,4 0,4 8,0 0,-4 -4,0 0,-4 z m 28,0 0,4 -4,0 0,4 8,0 0,-4 0,-4 z m -16,4 0,4 8,0 0,-4 z"/></g><g id="layer1"><rect style="opacity:1;fill:#323232;fill-opacity:1;stroke:#323232;stroke-width:1.5;stroke-miterlimit:4;stroke-dasharray:none;stroke-opacity:1" id="rect4198" width="13.435" height="4.154" x="15.604" y="-11.278" transform="matrix(0.68612539,0.7274833,-0.7274833,0.68612539,0,0)"/><rect style="opacity:1;fill:#323232;fill-opacity:1;stroke:#323232;stroke-width:1.5;stroke-miterlimit:4;stroke-dasharray:none;stroke-opacity:1" id="rect4198-3" width="6.044" height="7.997" x="19.312" y="-18.108" ry="0" transform="matrix(0.68612539,0.7274833,-0.7274833,0.68612539,0,0)"/><path style="fill:none;fill-rule:evenodd;stroke:#323232;stroke-width:1.70000005;stroke-linecap:butt;stroke-linejoin:miter;stroke-miterlimit:4;stroke-dasharray:none;stroke-opacity:1" id="path4215" d="M 18.473165,8.7322547 8.57367,18.366585 7.689786,23.493109 12.374369,22.520837 22.980971,12.886507"/><path style="fill:#323232;fill-opacity:1;fill-rule:evenodd;stroke:none;stroke-width:1px;stroke-linecap:butt;stroke-linejoin:miter;stroke-opacity:1" id="path4217" d="m 7.336233,20.134352 c 0.441942,0 7.071068,0.441942 7.071068,0.441942 l -4.331029,2.828427 -2.828427,-0.265165 z"/></g></svg>