<svg xmlns="http://www.w3.org/2000/svg" xmlns:svg="http://www.w3.org/2000/svg" id="svg2" width="32" height="32" version="1.1" viewBox="0 0 32 32"><defs id="defs4"><filter style="color-interpolation-filters:sRGB" id="filter4429"><feFlood id="feFlood4431" flood-color="#000" flood-opacity=".502" result="flood"/><feComposite id="feComposite4433" in="flood" in2="SourceGraphic" operator="in" result="composite1"/><feGaussianBlur id="feGaussianBlur4435" in="composite1" result="blur" stdDeviation="0"/><feOffset id="feOffset4437" dx="0" dy="-2" result="offset"/><feComposite id="feComposite4439" in="SourceGraphic" in2="offset" operator="over" result="composite2"/></filter></defs><metadata id="metadata7"/><g id="layer2" style="display:inline"><rect style="opacity:1;fill:#373737;fill-opacity:1;stroke:none;stroke-width:4;stroke-linecap:butt;stroke-linejoin:miter;stroke-miterlimit:4;stroke-dasharray:none;stroke-dashoffset:1;stroke-opacity:1" id="rect4155-8" width="8" height="4" x="12" y="28" rx="0" ry="0"/><rect style="opacity:1;fill:#373737;fill-opacity:1;stroke:none;stroke-width:4;stroke-linecap:butt;stroke-linejoin:miter;stroke-miterlimit:4;stroke-dasharray:none;stroke-dashoffset:1;stroke-opacity:1" id="rect4155-8-7" width="8" height="4" x="12" y="-32" rx="0" ry="0" transform="matrix(0,1,-1,0,0,0)"/><rect style="opacity:1;fill:#373737;fill-opacity:1;stroke:none;stroke-width:4;stroke-linecap:butt;stroke-linejoin:miter;stroke-miterlimit:4;stroke-dasharray:none;stroke-dashoffset:1;stroke-opacity:1" id="rect4155-8-7-8" width="8" height="4" x="12" y="-4" rx="0" ry="0" transform="matrix(0,1,-1,0,0,0)"/></g><g id="layer1" style="display:none"><path style="display:inline;opacity:1;fill:#cacaca;fill-opacity:1;stroke:none;stroke-width:4;stroke-linecap:square;stroke-linejoin:miter;stroke-miterlimit:4;stroke-dasharray:none;stroke-dashoffset:0;stroke-opacity:1" id="rect4164-4-9" d="m 10,0 0,12 12,0 0,-12 z m 4,4 4,0 0,4 -4,0 z"/><path style="display:inline;opacity:1;fill:#cacaca;fill-opacity:1;stroke:none;stroke-width:4;stroke-linecap:square;stroke-linejoin:miter;stroke-miterlimit:4;stroke-dasharray:none;stroke-dashoffset:0;stroke-opacity:1" id="rect4204-2" d="m 20,3.999999 12,0 0,1e-7 0,3.9999999 0,0 -12,0 0,0 z"/><path style="opacity:1;fill:#cacaca;fill-opacity:1;stroke:none;stroke-width:4;stroke-linecap:square;stroke-linejoin:miter;stroke-miterlimit:4;stroke-dasharray:none;stroke-dashoffset:0;stroke-opacity:1" id="rect4221" d="m 26,1.9999994 4,0 0,0 0,8 0,0 -4,0 0,0 z"/><path style="display:inline;opacity:1;fill:#cacaca;fill-opacity:1;stroke:none;stroke-width:4;stroke-linecap:square;stroke-linejoin:miter;stroke-miterlimit:4;stroke-dasharray:none;stroke-dashoffset:0;stroke-opacity:1" id="rect4204-2-3" d="m 2,1.999999 4,0 0,10e-8 0,7.9999999 0,0 -4,0 0,0 z"/><path style="display:inline;opacity:1;fill:#cacaca;fill-opacity:1;stroke:none;stroke-width:4;stroke-linecap:square;stroke-linejoin:miter;stroke-miterlimit:4;stroke-dasharray:none;stroke-dashoffset:0;stroke-opacity:1" id="rect4221-6" d="m 0,3.9999994 12,0 0,0 0,4 0,0 -12,0 0,0 z"/></g><g style="display:inline" id="g4151"><path id="path4153" d="m 12,0.875 0,8 8,0 0,-8 z m 2,2 4,0 0,4 -4,0 z" style="display:inline;opacity:1;fill:#373737;fill-opacity:1;stroke:none;stroke-width:4;stroke-linecap:square;stroke-linejoin:miter;stroke-miterlimit:4;stroke-dasharray:none;stroke-dashoffset:0;stroke-opacity:1"/><path id="path4155" d="m 20,2.874999 12,0 0,1e-7 0,3.9999999 0,0 -12,0 0,0 z" style="display:inline;opacity:1;fill:#373737;fill-opacity:1;stroke:none;stroke-width:4;stroke-linecap:square;stroke-linejoin:miter;stroke-miterlimit:4;stroke-dasharray:none;stroke-dashoffset:0;stroke-opacity:1"/><path id="path4157" d="m 26,0.8749994 4,0 0,0 0,8 0,0 -4,0 0,0 z" style="opacity:1;fill:#373737;fill-opacity:1;stroke:none;stroke-width:4;stroke-linecap:square;stroke-linejoin:miter;stroke-miterlimit:4;stroke-dasharray:none;stroke-dashoffset:0;stroke-opacity:1"/><path id="path4159" d="m 2,0.874999 4,0 0,1e-7 0,7.9999999 0,0 -4,0 0,0 z" style="display:inline;opacity:1;fill:#373737;fill-opacity:1;stroke:none;stroke-width:4;stroke-linecap:square;stroke-linejoin:miter;stroke-miterlimit:4;stroke-dasharray:none;stroke-dashoffset:0;stroke-opacity:1"/><path id="path4161" d="m 0,2.8749994 12,0 0,0 0,4 0,0 -12,0 0,0 z" style="display:inline;opacity:1;fill:#373737;fill-opacity:1;stroke:none;stroke-width:4;stroke-linecap:square;stroke-linejoin:miter;stroke-miterlimit:4;stroke-dasharray:none;stroke-dashoffset:0;stroke-opacity:1"/><path style="fill:none;fill-rule:evenodd;stroke:#323232;stroke-width:5;stroke-linecap:butt;stroke-linejoin:miter;stroke-miterlimit:4;stroke-dasharray:none;stroke-opacity:1" id="path4158" d="m 4.2214302,22.661112 c 0.6862653,1.358472 0.864745,3.163245 4.2440098,4.854937"/><path style="display:inline;fill:none;fill-rule:evenodd;stroke:#323232;stroke-width:5;stroke-linecap:butt;stroke-linejoin:miter;stroke-miterlimit:4;stroke-dasharray:none;stroke-opacity:1" id="path4158-3" d="m 23.805725,27.497204 c 1.259109,-0.855015 3.026025,-1.263754 4.269808,-4.832263"/></g></svg>