<svg xmlns="http://www.w3.org/2000/svg" xmlns:svg="http://www.w3.org/2000/svg" id="svg2" width="32" height="32" version="1.1" viewBox="0 0 32 32"><defs id="defs4"><filter style="color-interpolation-filters:sRGB" id="filter4429"><feFlood id="feFlood4431" flood-color="#000" flood-opacity=".502" result="flood"/><feComposite id="feComposite4433" in="flood" in2="SourceGraphic" operator="in" result="composite1"/><feGaussianBlur id="feGaussianBlur4435" in="composite1" result="blur" stdDeviation="0"/><feOffset id="feOffset4437" dx="0" dy="-2" result="offset"/><feComposite id="feComposite4439" in="SourceGraphic" in2="offset" operator="over" result="composite2"/></filter><filter style="color-interpolation-filters:sRGB" id="filter8784"><feFlood id="feFlood8786" flood-color="#000" flood-opacity=".502" result="flood"/><feComposite id="feComposite8788" in="flood" in2="SourceGraphic" operator="in" result="composite1"/><feGaussianBlur id="feGaussianBlur8790" in="composite1" result="blur" stdDeviation="0"/><feOffset id="feOffset8792" dx="0" dy="-2" result="offset"/><feComposite id="feComposite8794" in="SourceGraphic" in2="offset" operator="over" result="composite2"/></filter><filter style="color-interpolation-filters:sRGB" id="filter8959"><feFlood id="feFlood8961" flood-color="#000" flood-opacity=".502" result="flood"/><feComposite id="feComposite8963" in="flood" in2="SourceGraphic" operator="in" result="composite1"/><feGaussianBlur id="feGaussianBlur8965" in="composite1" result="blur" stdDeviation="0"/><feOffset id="feOffset8967" dx="0" dy="-2" result="offset"/><feComposite id="feComposite8969" in="SourceGraphic" in2="offset" operator="over" result="composite2"/></filter><filter style="color-interpolation-filters:sRGB" id="filter10340"><feFlood id="feFlood10342" flood-color="#000" flood-opacity=".502" result="flood"/><feComposite id="feComposite10344" in="flood" in2="SourceGraphic" operator="in" result="composite1"/><feGaussianBlur id="feGaussianBlur10346" in="composite1" result="blur" stdDeviation="0"/><feOffset id="feOffset10348" dx="0" dy="-2" result="offset"/><feComposite id="feComposite10350" in="SourceGraphic" in2="offset" operator="over" result="composite2"/></filter><filter style="color-interpolation-filters:sRGB" id="filter10352"><feFlood id="feFlood10354" flood-color="#000" flood-opacity=".502" result="flood"/><feComposite id="feComposite10356" in="flood" in2="SourceGraphic" operator="in" result="composite1"/><feGaussianBlur id="feGaussianBlur10358" in="composite1" result="blur" stdDeviation="0"/><feOffset id="feOffset10360" dx="0" dy="-2" result="offset"/><feComposite id="feComposite10362" in="SourceGraphic" in2="offset" operator="over" result="composite2"/></filter><clipPath id="clipPath4205" clipPathUnits="userSpaceOnUse"><path id="path4207" d="M 0,32 32,32 32,0 0,0 0,32 Z"/></clipPath><clipPath id="clipPath4238" clipPathUnits="userSpaceOnUse"><path id="path4240" d="M 0,32 32,32 32,0 0,0 0,32 Z"/></clipPath></defs><metadata id="metadata7"/><g id="layer1" style="display:none"><path style="opacity:1;fill:#cacaca;fill-opacity:1;stroke:none;stroke-width:4;stroke-linecap:square;stroke-linejoin:miter;stroke-miterlimit:4;stroke-dasharray:none;stroke-dashoffset:0;stroke-opacity:1" id="rect4302" d="M 3.3546499e-8,28 16,28 l 0,0 0,4 0,0 L 3.3546499e-8,32 0,32 0,28 Z"/><path style="opacity:1;fill:#cacaca;fill-opacity:1;stroke:none;stroke-width:4;stroke-linecap:square;stroke-linejoin:miter;stroke-miterlimit:4;stroke-dasharray:none;stroke-dashoffset:0;stroke-opacity:1" id="rect4302-7-0" d="m 16,28 4,0 0,0 0,4 0,0 -4,0 0,0 z"/><path style="opacity:1;fill:#cacaca;fill-opacity:1;stroke:none;stroke-width:4;stroke-linecap:square;stroke-linejoin:miter;stroke-miterlimit:4;stroke-dasharray:none;stroke-dashoffset:0;stroke-opacity:1" id="rect4302-3" d="m 16,-5.2499998e-7 16,0 0,0 L 32,3.9999995 l 0,0 -16,0 0,0 L 16,-5.2499998e-7 Z"/><path style="opacity:1;fill:#cacaca;fill-opacity:1;stroke:none;stroke-width:4;stroke-linecap:square;stroke-linejoin:miter;stroke-miterlimit:4;stroke-dasharray:none;stroke-dashoffset:0;stroke-opacity:1" id="rect4302-3-8" d="m 32,-9e-7 0,15.9999999 0,0 -4,0 0,0 L 28,-9e-7 l 0,0 4,0 z"/><path style="opacity:1;fill:#cacaca;fill-opacity:1;stroke:none;stroke-width:4;stroke-linecap:square;stroke-linejoin:miter;stroke-miterlimit:4;stroke-dasharray:none;stroke-dashoffset:0;stroke-opacity:1" id="rect4302-3-8-9" d="m 4,15.999999 0,16 0,0 -4,0 0,0 0,-16 0,0 4,0 z"/><path style="opacity:1;fill:#cacaca;fill-opacity:1;stroke:none;stroke-width:4;stroke-linecap:square;stroke-linejoin:miter;stroke-miterlimit:4;stroke-dasharray:none;stroke-dashoffset:0;stroke-opacity:1" id="rect4302-7-0-1" d="m 18,26 4,0 0,0 0,4 0,0 -4,0 0,0 z"/><path style="opacity:1;fill:#cacaca;fill-opacity:1;stroke:none;stroke-width:4;stroke-linecap:square;stroke-linejoin:miter;stroke-miterlimit:4;stroke-dasharray:none;stroke-dashoffset:0;stroke-opacity:1" id="rect4302-7-0-7" d="m 20,24 4,0 0,0 0,4 0,0 -4,0 0,0 z"/><path style="opacity:1;fill:#cacaca;fill-opacity:1;stroke:none;stroke-width:4;stroke-linecap:square;stroke-linejoin:miter;stroke-miterlimit:4;stroke-dasharray:none;stroke-dashoffset:0;stroke-opacity:1" id="rect4302-7-0-4" d="m 22,22 4,0 0,0 0,4 0,0 -4,0 0,0 z"/><path style="opacity:1;fill:#cacaca;fill-opacity:1;stroke:none;stroke-width:4;stroke-linecap:square;stroke-linejoin:miter;stroke-miterlimit:4;stroke-dasharray:none;stroke-dashoffset:0;stroke-opacity:1" id="rect4302-7-0-0" d="m 24,20 4,0 0,0 0,4 0,0 -4,0 0,0 z"/><path style="opacity:1;fill:#cacaca;fill-opacity:1;stroke:none;stroke-width:4;stroke-linecap:square;stroke-linejoin:miter;stroke-miterlimit:4;stroke-dasharray:none;stroke-dashoffset:0;stroke-opacity:1" id="rect4302-7-0-77" d="m 26,18 4,0 0,0 0,4 0,0 -4,0 0,0 z"/><path style="opacity:1;fill:#cacaca;fill-opacity:1;stroke:none;stroke-width:4;stroke-linecap:square;stroke-linejoin:miter;stroke-miterlimit:4;stroke-dasharray:none;stroke-dashoffset:0;stroke-opacity:1" id="rect4302-7-0-8" d="m 28,16 4,0 0,0 0,4 0,0 -4,0 0,0 z"/><path style="opacity:1;fill:#cacaca;fill-opacity:1;stroke:none;stroke-width:4;stroke-linecap:square;stroke-linejoin:miter;stroke-miterlimit:4;stroke-dasharray:none;stroke-dashoffset:0;stroke-opacity:1" id="rect4302-7-0-3" d="m 0,12 4,0 0,0 0,4 0,0 -4,0 0,0 z"/><path style="opacity:1;fill:#cacaca;fill-opacity:1;stroke:none;stroke-width:4;stroke-linecap:square;stroke-linejoin:miter;stroke-miterlimit:4;stroke-dasharray:none;stroke-dashoffset:0;stroke-opacity:1" id="rect4302-7-0-1-1" d="m 2,9.9999997 4,0 0,0 L 6,14 l 0,0 -4,0 0,0 z"/><path style="opacity:1;fill:#cacaca;fill-opacity:1;stroke:none;stroke-width:4;stroke-linecap:square;stroke-linejoin:miter;stroke-miterlimit:4;stroke-dasharray:none;stroke-dashoffset:0;stroke-opacity:1" id="rect4302-7-0-7-1" d="m 4,7.9999997 4,0 0,0 L 8,12 l 0,0 -4,0 0,0 z"/><path style="opacity:1;fill:#cacaca;fill-opacity:1;stroke:none;stroke-width:4;stroke-linecap:square;stroke-linejoin:miter;stroke-miterlimit:4;stroke-dasharray:none;stroke-dashoffset:0;stroke-opacity:1" id="rect4302-7-0-4-0" d="m 6,5.9999997 4,0 0,0 0,4 0,0 -4,0 0,0 z"/><path style="opacity:1;fill:#cacaca;fill-opacity:1;stroke:none;stroke-width:4;stroke-linecap:square;stroke-linejoin:miter;stroke-miterlimit:4;stroke-dasharray:none;stroke-dashoffset:0;stroke-opacity:1" id="rect4302-7-0-0-8" d="m 8,3.9999997 4,0 0,0 0,4 0,0 -4,0 0,0 z"/><path style="opacity:1;fill:#cacaca;fill-opacity:1;stroke:none;stroke-width:4;stroke-linecap:square;stroke-linejoin:miter;stroke-miterlimit:4;stroke-dasharray:none;stroke-dashoffset:0;stroke-opacity:1" id="rect4302-7-0-77-6" d="m 10,1.9999997 4,0 0,0 0,4 0,0 -4,0 0,0 z"/><path style="opacity:1;fill:#cacaca;fill-opacity:1;stroke:none;stroke-width:4;stroke-linecap:square;stroke-linejoin:miter;stroke-miterlimit:4;stroke-dasharray:none;stroke-dashoffset:0;stroke-opacity:1" id="rect4302-7-0-8-4" d="m 12,-2.9999999e-7 4,0 0,0 L 16,3.9999997 l 0,0 -4,0 0,0 z"/></g><g id="g4519" style="display:inline"><path id="path4541" d="m 28,16 4,0 0,0 0,4 0,0 -4,0 0,0 z" style="opacity:1;fill:#cacaca;fill-opacity:1;stroke:none;stroke-width:4;stroke-linecap:square;stroke-linejoin:miter;stroke-miterlimit:4;stroke-dasharray:none;stroke-dashoffset:0;stroke-opacity:1"/><path id="path4543" d="m 0,12 4,0 0,0 0,4 0,0 -4,0 0,0 z" style="opacity:1;fill:#cacaca;fill-opacity:1;stroke:none;stroke-width:4;stroke-linecap:square;stroke-linejoin:miter;stroke-miterlimit:4;stroke-dasharray:none;stroke-dashoffset:0;stroke-opacity:1"/><path id="path4555" d="m 12,-2.9999999e-7 4,0 0,0 L 16,3.9999997 l 0,0 -4,0 0,0 z" style="opacity:1;fill:#cacaca;fill-opacity:1;stroke:none;stroke-width:4;stroke-linecap:square;stroke-linejoin:miter;stroke-miterlimit:4;stroke-dasharray:none;stroke-dashoffset:0;stroke-opacity:1"/><path id="path4541-4" d="m 28,3.9999998 4,0 0,0 0,4 0,0 -4,0 0,0 z" style="display:inline;opacity:1;fill:#cacaca;fill-opacity:1;stroke:none;stroke-width:4;stroke-linecap:square;stroke-linejoin:miter;stroke-miterlimit:4;stroke-dasharray:none;stroke-dashoffset:0;stroke-opacity:1"/><path id="path4541-49" d="m 28,12 4,0 0,0 0,4 0,0 -4,0 0,0 z" style="display:inline;opacity:1;fill:#cacaca;fill-opacity:1;stroke:none;stroke-width:4;stroke-linecap:square;stroke-linejoin:miter;stroke-miterlimit:4;stroke-dasharray:none;stroke-dashoffset:0;stroke-opacity:1"/><path id="path4541-49-5" d="m 28,-2.2499999e-7 4,0 0,0 L 32,3.9999998 l 0,0 -4,0 0,0 z" style="display:inline;opacity:1;fill:#cacaca;fill-opacity:1;stroke:none;stroke-width:4;stroke-linecap:square;stroke-linejoin:miter;stroke-miterlimit:4;stroke-dasharray:none;stroke-dashoffset:0;stroke-opacity:1"/><path id="path4541-49-4" d="m 24,-2.2499999e-7 4,0 0,0 L 28,3.9999998 l 0,0 -4,0 0,0 z" style="display:inline;opacity:1;fill:#cacaca;fill-opacity:1;stroke:none;stroke-width:4;stroke-linecap:square;stroke-linejoin:miter;stroke-miterlimit:4;stroke-dasharray:none;stroke-dashoffset:0;stroke-opacity:1"/><path id="path4541-49-7" d="m 16,-2.2499999e-7 4,0 0,0 L 20,3.9999998 l 0,0 -4,0 0,0 z" style="display:inline;opacity:1;fill:#cacaca;fill-opacity:1;stroke:none;stroke-width:4;stroke-linecap:square;stroke-linejoin:miter;stroke-miterlimit:4;stroke-dasharray:none;stroke-dashoffset:0;stroke-opacity:1"/><path id="path4541-4-9" d="m 0,28 4,0 0,0 0,4 0,0 -4,0 0,0 z" style="display:inline;opacity:1;fill:#cacaca;fill-opacity:1;stroke:none;stroke-width:4;stroke-linecap:square;stroke-linejoin:miter;stroke-miterlimit:4;stroke-dasharray:none;stroke-dashoffset:0;stroke-opacity:1"/><path id="path4541-4-1" d="m 0,24 4,0 0,0 0,4 0,0 -4,0 0,0 z" style="display:inline;opacity:1;fill:#cacaca;fill-opacity:1;stroke:none;stroke-width:4;stroke-linecap:square;stroke-linejoin:miter;stroke-miterlimit:4;stroke-dasharray:none;stroke-dashoffset:0;stroke-opacity:1"/><path id="path4541-4-6" d="m 4,28 4,0 0,0 0,4 0,0 -4,0 0,0 z" style="display:inline;opacity:1;fill:#cacaca;fill-opacity:1;stroke:none;stroke-width:4;stroke-linecap:square;stroke-linejoin:miter;stroke-miterlimit:4;stroke-dasharray:none;stroke-dashoffset:0;stroke-opacity:1"/><path id="path4541-4-4" d="m 0,16 4,0 0,0 0,4 0,0 -4,0 0,0 z" style="display:inline;opacity:1;fill:#cacaca;fill-opacity:1;stroke:none;stroke-width:4;stroke-linecap:square;stroke-linejoin:miter;stroke-miterlimit:4;stroke-dasharray:none;stroke-dashoffset:0;stroke-opacity:1"/><path id="path4541-4-44" d="m 12,28 4,0 0,0 0,4 0,0 -4,0 0,0 z" style="display:inline;opacity:1;fill:#cacaca;fill-opacity:1;stroke:none;stroke-width:4;stroke-linecap:square;stroke-linejoin:miter;stroke-miterlimit:4;stroke-dasharray:none;stroke-dashoffset:0;stroke-opacity:1"/><path id="path4541-4-44-6" d="m 16,28 4,0 0,0 0,4 0,0 -4,0 0,0 z" style="display:inline;opacity:1;fill:#cacaca;fill-opacity:1;stroke:none;stroke-width:4;stroke-linecap:square;stroke-linejoin:miter;stroke-miterlimit:4;stroke-dasharray:none;stroke-dashoffset:0;stroke-opacity:1"/><path style="fill:none;fill-rule:evenodd;stroke:#c8c8c8;stroke-width:3.61637855;stroke-linecap:butt;stroke-linejoin:miter;stroke-miterlimit:4;stroke-dasharray:none;stroke-opacity:1" id="path4211" d="M 5.686638,9.45891 10.128486,4.9123332"/><path style="display:inline;fill:none;fill-rule:evenodd;stroke:#c8c8c8;stroke-width:3.61637855;stroke-linecap:butt;stroke-linejoin:miter;stroke-miterlimit:4;stroke-dasharray:none;stroke-opacity:1" id="path4211-7" d="m 22.029076,26.460788 4.441848,-4.546576"/></g></svg>