<svg xmlns="http://www.w3.org/2000/svg" xmlns:svg="http://www.w3.org/2000/svg" id="svg2" width="34.133" height="34.133" version="1.1" viewBox="0 0 32 32"><defs id="defs4"><filter style="color-interpolation-filters:sRGB" id="filter4429"><feFlood id="feFlood4431" flood-color="#000" flood-opacity=".502" result="flood"/><feComposite id="feComposite4433" in="flood" in2="SourceGraphic" operator="in" result="composite1"/><feGaussianBlur id="feGaussianBlur4435" in="composite1" result="blur" stdDeviation="0"/><feOffset id="feOffset4437" dx="0" dy="-2" result="offset"/><feComposite id="feComposite4439" in="SourceGraphic" in2="offset" operator="over" result="composite2"/></filter><filter style="color-interpolation-filters:sRGB" id="filter4238"><feFlood id="feFlood4240" flood-color="#000" flood-opacity=".502" result="flood"/><feComposite id="feComposite4242" in="flood" in2="SourceGraphic" operator="in" result="composite1"/><feGaussianBlur id="feGaussianBlur4244" in="composite1" result="blur" stdDeviation="0"/><feOffset id="feOffset4246" dx="0" dy="-2" result="offset"/><feComposite id="feComposite4248" in="SourceGraphic" in2="offset" operator="over" result="composite2"/></filter></defs><metadata id="metadata7"/><g id="layer4" style="display:none"><path style="opacity:1;fill:#cacaca;fill-opacity:1;stroke:none;stroke-width:4;stroke-linecap:butt;stroke-linejoin:bevel;stroke-miterlimit:4;stroke-dasharray:none;stroke-dashoffset:1;stroke-opacity:1" id="rect4883" d="M 0,0 V 4 8 H 4 V 4 H 8 V 0 Z m 0,12 v 8 h 4 v -8 z m 0,12 v 4 4 H 8 V 28 H 4 v -4 z m 28,0 v 4 h -4 v 4 h 8 v -4 -4 z m -16,4 v 4 h 8 v -4 z"/></g><g id="layer1"><rect style="display:inline;opacity:.98999999;fill:#323232;fill-opacity:1;stroke:#c8c8c8;stroke-width:3.07752299;stroke-miterlimit:4;stroke-dasharray:none;stroke-opacity:1" id="rect933" width="16.764" height="3.059" x="14.831" y="-6.802" transform="matrix(0.69975369,0.71438419,-0.66216925,0.74935431,0,0)"/><rect style="display:inline;opacity:.98000004;fill:#c8c8c8;fill-opacity:1;stroke:#c8c8c8;stroke-width:3.07752299;stroke-miterlimit:4;stroke-dasharray:none;stroke-opacity:1" id="rect933-7" width="7.312" height="10.124" x="19.61" y="-15.337" ry="0" transform="matrix(0.69975369,0.71438419,-0.66216925,0.74935431,0,0)"/><path style="display:inline;fill:none;stroke:#c8c8c8;stroke-width:2.67079163;stroke-linecap:butt;stroke-linejoin:miter;stroke-miterlimit:4;stroke-dasharray:none;stroke-opacity:1" id="path965" d="M 19.833235,16.204305 6.5386281,29.498912 1.6278291,30.128424 2.7401681,25.700452 16.034776,12.405846"/><path style="display:inline;fill:#c8c8c8;fill-opacity:1;stroke:none;stroke-width:.8902638px;stroke-linecap:butt;stroke-linejoin:miter;stroke-opacity:1" id="path969" d="M 6.5386281,21.901995 H 14.135546 L 6.0414431,30.32091 2.7401681,31.398143 V 25.700452 Z"/></g></svg>