<svg xmlns="http://www.w3.org/2000/svg" xmlns:svg="http://www.w3.org/2000/svg" id="svg2" width="32" height="32" version="1.1" viewBox="0 0 32 32"><defs id="defs4"><filter style="color-interpolation-filters:sRGB" id="filter4429"><feFlood id="feFlood4431" flood-color="#000" flood-opacity=".502" result="flood"/><feComposite id="feComposite4433" in="flood" in2="SourceGraphic" operator="in" result="composite1"/><feGaussianBlur id="feGaussianBlur4435" in="composite1" result="blur" stdDeviation="0"/><feOffset id="feOffset4437" dx="0" dy="-2" result="offset"/><feComposite id="feComposite4439" in="SourceGraphic" in2="offset" operator="over" result="composite2"/></filter><filter style="color-interpolation-filters:sRGB" id="filter4326"><feFlood id="feFlood4328" flood-color="#000" flood-opacity=".502" result="flood"/><feComposite id="feComposite4330" in="flood" in2="SourceGraphic" operator="in" result="composite1"/><feGaussianBlur id="feGaussianBlur4332" in="composite1" result="blur" stdDeviation="0"/><feOffset id="feOffset4334" dx="0" dy="-2" result="offset"/><feComposite id="feComposite4336" in="SourceGraphic" in2="offset" operator="over" result="composite2"/></filter><filter style="color-interpolation-filters:sRGB" id="filter5523"><feFlood id="feFlood5525" flood-color="#000" flood-opacity=".502" result="flood"/><feComposite id="feComposite5527" in="flood" in2="SourceGraphic" operator="in" result="composite1"/><feGaussianBlur id="feGaussianBlur5529" in="composite1" result="blur" stdDeviation="0"/><feOffset id="feOffset5531" dx="0" dy="-2" result="offset"/><feComposite id="feComposite5533" in="SourceGraphic" in2="offset" operator="over" result="composite2"/></filter></defs><metadata id="metadata7"/><g id="layer3" style="display:none"><path style="opacity:1;fill:#cacaca;fill-opacity:1;stroke:none;stroke-width:2;stroke-linecap:square;stroke-linejoin:miter;stroke-miterlimit:4;stroke-dasharray:none;stroke-dashoffset:1;stroke-opacity:1" id="rect4360" d="m 2,0 0,4 0,6 4,0 0,-2 C 6,5.9999995 8,4 12,4 l 2,0 0,22 c 0,1 -1,2 -2,2 l -2,0 0,4 4,0 4,0 4,0 0,-4 -2,0 c -1,0 -2,-1 -2,-2 l 0,-22 2,0 c 4,0 6,1.9999995 6,4 l 0,2 4,0 L 30,0 6,0 Z"/></g><g style="display:inline" id="g4154"><path id="path4156" d="m 2,0 0,4 0,6 4,0 0,-6 6,0 2,0 0,24 -2,0 -2,0 0,4 4,0 4,0 4,0 0,-4 -2,0 -2,0 0,-24 2,0 6,0 0,6 4,0 L 30,0 6,0 Z" style="opacity:1;fill:#cacaca;fill-opacity:1;stroke:none;stroke-width:2;stroke-linecap:square;stroke-linejoin:miter;stroke-miterlimit:4;stroke-dasharray:none;stroke-dashoffset:1;stroke-opacity:1"/></g></svg>